<?xml version="1.0" encoding="UTF-8"?>
<svg id="Layer_2" data-name="Layer 2" xmlns="http://www.w3.org/2000/svg" viewBox="0 0 360.66 328.24">
  <defs>
    <style>
      .cls-1 {
        fill: #454546;
      }

      .cls-2 {
        fill: #24ae4b;
      }
    </style>
  </defs>
  <g id="Layer_1-2" data-name="Layer 1">
    <path class="cls-1" d="m360.65,132.54c0,30.42-.01,60.83.01,91.25,0,3.99-.17,7.97-.6,11.92-1.19,10.96-4.12,21.46-8.78,31.47-13.65,29.37-40.54,50.82-70.98,58.1-5.82,1.39-11.7,2.26-17.67,2.7-5.88.44-11.73.28-17.56-.32-10.06-1.03-19.78-3.53-29.12-7.43-12.27-5.13-23.21-12.32-32.83-21.5-.72-.69-1.43-1.39-2.16-2.06-.43-.4-1.02-.37-1.47.06-.56.53-1.11,1.08-1.67,1.61-13.27,12.74-28.72,21.61-46.51,26.38-6.53,1.75-13.16,2.78-19.92,3.27-5.88.42-11.72.24-17.56-.32-6.5-.63-12.88-1.97-19.14-3.85-28.27-8.51-52.17-28.94-64.9-55.52-4.18-8.73-7.07-17.85-8.6-27.42-.82-5.15-1.28-10.31-1.2-15.52.03-1.66.03-3.32.03-4.98,0-61.5,0-122.99,0-184.49,0-1.77-.02-3.54.04-5.31.15-4.35.98-8.57,2.62-12.6C5.82,10.33,11.08,4.73,18.93,1.92c9.48-3.38,18.52-2.37,26.78,3.56,5.21,3.74,8.52,8.9,10.5,14.95,1.25,3.82,1.69,7.77,1.82,11.76.05,1.33.01,2.65.01,3.98,0,62.82.01,125.65-.02,188.47,0,5.71.86,11.22,2.92,16.55,5.38,13.92,17.52,24.74,31.99,28.46,26.03,6.68,50.32-9.59,56.75-32.37.99-3.52,1.63-7.09,1.58-10.79-.05-3.65.09-7.3.09-10.95.01-22.45,0-44.91,0-67.36,0-.77-.05-1.55.02-2.32.06-.71-.41-1.69.49-2.06.64-.26,1.16.47,1.67.85,4.76,3.53,9.98,6.12,15.75,7.52,13.33,3.22,25.64.92,36.95-6.84.81-.56,1.64-1.09,2.49-1.6.1-.06.5.12.53.25.11.54.18,1.09.18,1.63.02,3.54.01,7.08.01,10.62,0,23.34.04,46.68-.06,70.01-.03,6.11,1.22,11.88,3.81,17.33,6.68,14.08,17.74,22.85,32.84,26.56,26.5,5.39,48.92-11.61,54.86-32.84,1.08-3.85,1.72-7.77,1.73-11.77,0-1.66,0-3.32,0-4.98,0-61.61,0-123.21,0-184.82,0-1.77-.02-3.54.04-5.31.17-4.35,1.01-8.57,2.67-12.59,3.11-7.52,8.3-13.01,16-15.86,8.09-2.99,16.06-2.62,23.73,1.44,5.14,2.72,8.95,6.8,11.62,11.94,1.95,3.77,3.11,7.78,3.57,12.01.27,2.53.38,5.07.38,7.62-.01,32.52,0,65.04,0,97.55Z"/>
    <path class="cls-2" d="m285.01,158.49c0,19.8,0,39.59,0,59.39,0,3.55-.3,7.08-1.22,10.51-1.97,7.34-5.94,13.3-12.45,17.36-14.06,8.76-32.99,4.31-40.86-11.81-1.51-3.1-2.46-6.37-2.88-9.81-.28-2.31-.39-4.62-.39-6.95,0-35.83,0-71.67,0-107.5,0-1.66-.01-3.32-.02-4.98-.06-9.26-2.94-17.62-8.24-25.12-6.99-9.88-16.45-16.21-28.22-19.05-2.58-.62-5.2-1.03-7.87-1.04-3.54-.02-7.05-.04-10.57.6-7.32,1.33-13.95,4.18-19.89,8.62-8.8,6.59-14.69,15.18-17.52,25.84-1.03,3.88-1.32,7.84-1.47,11.82-.04,1.21-.01,2.43-.01,3.65,0,35.61,0,71.22,0,106.84,0,2.1.02,4.21-.17,6.3-.66,7.17-3.34,13.47-8.44,18.64-4.08,4.13-9,6.69-14.72,7.77-8.41,1.58-16.04-.17-22.81-5.38-5.07-3.91-8.37-9.06-10.13-15.19-.89-3.09-1.34-6.25-1.32-9.49.04-8.18,0-16.37,0-24.55,0-29.53-.04-59.06.01-88.59.05-27,9.55-50.33,27.83-70.07,12.82-13.84,28.35-23.5,46.38-29.07,6.14-1.9,12.4-3.15,18.79-3.9,6.73-.79,13.46-.6,20.2-.37,11.41,1.11,22.44,3.73,32.93,8.42,23.6,10.56,41.28,27.34,52.84,50.5,4.37,8.76,7.25,18.03,8.86,27.68.45,2.72.75,5.47.97,8.23.37,4.64.39,9.28.39,13.92,0,15.59,0,31.19,0,46.78Z"/>
    <path class="cls-1" d="m151.23,106.4c-.28-14.76,11.68-29.08,29.03-29.13,15.93-.05,29.14,12.6,29.11,29.08-.03,18.07-15.04,29.45-29.07,29.07-15.38.35-29.26-12.63-29.08-29.02Z"/>
  </g>
</svg>