<?xml version="1.0" encoding="UTF-8"?>
<svg id="Layer_2" data-name="Layer 2" xmlns="http://www.w3.org/2000/svg" viewBox="0 0 2144.76 877.61">
  <defs>
    <style>
      .cls-1 {
        fill: #fff;
      }

      .cls-2 {
        fill: #454546;
      }

      .cls-3 {
        fill: #24ae4b;
      }
    </style>
  </defs>
  <g id="Layer_1-2" data-name="Layer 1">
    <rect class="cls-1" width="2144.76" height="877.61"/>
    <g>
      <g>
        <path class="cls-2" d="m628.63,410.55c0,27.22,0,54.44.01,81.66,0,3.57-.15,7.13-.53,10.67-1.06,9.81-3.69,19.21-7.86,28.17-12.22,26.28-36.28,45.48-63.52,52-5.21,1.25-10.47,2.02-15.81,2.42-5.26.39-10.5.25-15.71-.29-9-.92-17.7-3.16-26.06-6.65-10.99-4.59-20.77-11.02-29.38-19.24-.64-.61-1.28-1.24-1.93-1.85-.38-.35-.92-.33-1.32.05-.5.47-.99.97-1.49,1.44-11.87,11.4-25.7,19.34-41.62,23.61-5.84,1.57-11.78,2.49-17.82,2.93-5.26.38-10.49.22-15.71-.29-5.82-.56-11.53-1.76-17.13-3.45-25.3-7.61-46.69-25.9-58.09-49.69-3.74-7.81-6.33-15.98-7.69-24.54-.73-4.61-1.15-9.23-1.08-13.89.02-1.48.03-2.97.03-4.45,0-55.04,0-110.07,0-165.11,0-1.58-.02-3.17.03-4.75.14-3.89.88-7.67,2.35-11.27,2.79-6.85,7.49-11.86,14.52-14.37,8.49-3.03,16.57-2.12,23.97,3.18,4.66,3.34,7.63,7.96,9.4,13.38,1.12,3.42,1.51,6.95,1.63,10.52.04,1.19.01,2.38.01,3.56,0,56.22.01,112.45-.02,168.67,0,5.11.77,10.05,2.61,14.81,4.81,12.46,15.68,22.14,28.63,25.47,23.3,5.98,45.03-8.59,50.79-28.97.89-3.15,1.46-6.35,1.41-9.65-.04-3.26.08-6.53.08-9.8,0-20.09,0-40.19,0-60.28,0-.69-.05-1.39.02-2.08.06-.64-.36-1.52.44-1.84.57-.23,1.04.42,1.5.76,4.26,3.16,8.93,5.48,14.1,6.73,11.93,2.89,22.95.83,33.06-6.12.73-.5,1.47-.98,2.23-1.43.09-.05.45.11.47.22.1.48.16.97.16,1.46.01,3.17.01,6.34,0,9.5,0,20.89.04,41.77-.05,62.66-.02,5.47,1.1,10.64,3.41,15.51,5.98,12.6,15.88,20.45,29.39,23.77,23.72,4.83,43.78-10.39,49.09-29.39.96-3.45,1.54-6.95,1.55-10.54,0-1.48,0-2.97,0-4.45,0-55.14,0-110.27,0-165.41,0-1.58-.02-3.17.04-4.75.15-3.89.91-7.67,2.39-11.26,2.78-6.73,7.43-11.65,14.32-14.2,7.24-2.68,14.37-2.35,21.24,1.29,4.6,2.44,8.01,6.09,10.4,10.69,1.75,3.37,2.79,6.96,3.19,10.75.24,2.27.34,4.54.34,6.82-.01,29.1,0,58.2,0,87.31Z"/>
        <path class="cls-3" d="m560.93,433.77c0,17.72,0,35.43,0,53.15,0,3.18-.27,6.33-1.09,9.41-1.76,6.57-5.32,11.91-11.14,15.53-12.58,7.84-29.53,3.86-36.57-10.56-1.35-2.77-2.2-5.7-2.58-8.78-.25-2.07-.35-4.13-.35-6.22,0-32.07,0-64.14,0-96.21,0-1.48-.01-2.97-.02-4.45-.05-8.28-2.63-15.77-7.38-22.48-6.25-8.84-14.72-14.5-25.25-17.05-2.31-.56-4.65-.92-7.04-.93-3.16-.01-6.31-.04-9.46.54-6.55,1.19-12.49,3.75-17.8,7.72-7.88,5.89-13.15,13.59-15.68,23.13-.92,3.47-1.18,7.01-1.31,10.58-.04,1.09-.01,2.18-.01,3.27,0,31.87,0,63.74,0,95.61,0,1.88.02,3.77-.15,5.64-.59,6.42-2.99,12.06-7.56,16.68-3.65,3.7-8.05,5.99-13.17,6.95-7.53,1.41-14.36-.15-20.41-4.82-4.54-3.5-7.49-8.11-9.06-13.6-.8-2.77-1.2-5.6-1.19-8.49.03-7.32,0-14.65,0-21.97,0-26.43-.04-52.85.01-79.28.04-24.17,8.55-45.04,24.91-62.71,11.47-12.39,25.37-21.03,41.51-26.02,5.49-1.7,11.1-2.82,16.81-3.49,6.03-.71,12.05-.53,18.08-.33,10.21.99,20.08,3.34,29.47,7.54,21.12,9.45,36.95,24.47,47.29,45.19,3.91,7.84,6.49,16.14,7.93,24.77.41,2.43.67,4.89.87,7.36.33,4.15.35,8.3.35,12.46,0,13.96,0,27.91,0,41.87Z"/>
        <path class="cls-2" d="m441.2,387.15c-.25-13.21,10.45-26.02,25.98-26.07,14.26-.04,26.08,11.28,26.06,26.03-.03,16.17-13.46,26.36-26.02,26.01-13.76.32-26.19-11.3-26.02-25.97Z"/>
      </g>
      <g>
        <g>
          <path class="cls-3" d="m1625.18,400.73c0,9.57.02,19.13-.02,28.7,0,2-.16,4.02-.45,6-.15,1.02-.99,1.73-2.03,2-2.48.64-5,.56-7.49.14-.93-.16-1.91-.72-2.61-1.37-1.1-1.02-2-2.25-2.94-3.43-9.4-11.82-18.78-23.65-28.18-35.47-1.72-2.17-3.46-4.33-5.28-6.4-.43-.49-1.24-.69-1.91-.9-.51-.16-1.17.77-1.23,1.63-.05.75-.1,1.51-.11,2.26-.02,1.76-.01,3.52-.01,5.29,0,10.07,0,20.14,0,30.21,0,2.01-.09,4.02-.19,6.03-.04.92-.98,1.84-1.93,2.04-.24.05-.48.21-.72.21-2.76.01-5.53.05-8.29-.03-1.5-.04-2.7-1.41-2.8-3.04-.1-1.76-.15-3.52-.15-5.28,0-19.89-.01-39.77,0-59.66,0-1.76.06-3.52.18-5.28.11-1.63,1.3-2.9,2.82-3.02,1.5-.12,3.01-.14,4.51-.22,2.73-.14,4.75.99,6.44,3.16,10.04,12.92,20.14,25.78,30.24,38.65,1.71,2.18,3.49,4.3,5.25,6.43.55.66,1.51.85,2.01.54.72-.44.91-1.14.93-1.88.05-2.52.09-5.03.09-7.55,0-10.32,0-20.64.01-30.96,0-1.76.06-3.52.14-5.28.07-1.4,1-2.46,2.24-2.63,3-.42,6.01-.5,9,.13.82.17,1.88,1.17,1.97,2.06.21,2.25.47,4.5.49,6.75.05,10.07.02,20.14.02,30.21Z"/>
          <path class="cls-3" d="m1541.55,400.21c0,9.81.02,19.62-.02,29.43,0,2-.19,4.01-.33,6.01-.06.86-.73,1.4-1.41,1.6-2.95.88-5.95.8-8.92.08-.68-.17-1.36-.69-1.86-1.22-1.19-1.29-2.3-2.66-3.39-4.04-10.01-12.6-20-25.22-30.03-37.81-1.24-1.56-2.25-3.39-4.18-4.24-.29-.13-1.15.26-1.2.52-.29,1.46-.56,2.95-.57,4.43-.05,11.32-.02,22.64-.03,33.96,0,2.01-.06,4.02-.14,6.03-.05,1.12-1.29,2.52-2.38,2.58-2.5.14-5.02.29-7.52.23-3.38-.09-3.95-1.44-4.03-4.2-.04-1.51-.03-3.02-.03-4.53,0-19.62,0-39.24,0-58.86,0-2.01.05-4.02.14-6.03.07-1.59,1.23-2.71,2.95-2.82,1.75-.11,3.51-.15,5.27-.14,1.85.01,3.42.67,4.6,2.17,1.08,1.39,2.2,2.75,3.29,4.13,10.25,13.05,20.49,26.11,30.77,39.15.92,1.17,2.02,2.2,3.05,3.27.37.39,1.85-.09,1.91-.62.18-1.48.46-2.97.46-4.46.04-11.32.01-22.64.03-33.96,0-2.26.1-4.52.23-6.78.07-1.31,1.12-2.43,2.37-2.52,1.75-.14,3.51-.27,5.26-.25,4.96.04,5.64.67,5.67,5.7.06,11.07.02,22.14.02,33.2h.02Z"/>
          <path class="cls-3" d="m1462.72,400.58c-.68,12.85-6.21,24.18-18.07,31.93-13.85,9.05-33.83,7.58-46.08-6.09-7.37-8.23-11.17-17.95-10.57-29.02,1.01-18.61,14.71-33.19,30.12-36.16,11.68-2.25,22.07.36,30.87,8.2,8.88,7.92,13.31,18.09,13.72,31.14Zm-14.37-.85c0-1.26.1-2.52-.02-3.76-.57-6.19-2.94-11.62-7.08-16.28-7.02-7.9-18.59-8.19-25.62-4.72-4.17,2.06-7.41,5.22-9.59,9.3-5.39,10.05-5.45,20.27.03,30.24,4.22,7.68,10.95,11.47,19.83,11.3,7.63-.14,13.51-3.42,17.69-9.73,3.26-4.94,5.01-10.37,4.76-16.35Z"/>
          <path class="cls-3" d="m1643.49,436.56c-1.06-2.62-.63-5.42-.64-8.16-.04-19.13-.02-38.26-.02-57.4,0-1.76,0-3.52.06-5.29.02-.75.18-1.49.29-2.24.13-.85,1.12-1.81,2.04-1.97.74-.13,1.48-.3,2.23-.34,1.51-.07,3.02-.09,4.53-.09,11.07,0,22.15-.03,33.22.02,2.25,0,4.5.27,6.75.47.88.08,1.82,1.14,2.01,2.01.52,2.49.55,4.98-.03,7.47-.2.87-1.19,1.8-2.13,1.85-2.01.1-4.02.2-6.03.21-7.55.03-15.1,0-22.65.03-1.49,0-3.01.14-4.46.46-.61.14-1.1.91-1.59,1.44-.15.16-.18.47-.21.72-.61,4.76-.49,9.54-.1,14.3.12,1.46,1.51,2.8,3.02,2.9,2.01.13,4.02.21,6.03.23,5.79.03,11.58-.01,17.37.04,1.5.01,3.01.17,4.48.48.66.14,1.36.69,1.39,1.58.05,2,.13,4.01.1,6.01-.02,1.26-1.09,2.26-2.47,2.37-1.5.12-3.01.22-4.52.23-3.78.03-7.55.01-11.33.02-2.27,0-4.53-.02-6.8.01-6.93.1-7.42.56-7.53,7.15-.05,2.77-.02,5.54.01,8.31.01,1,.12,2.01.23,3.01.18,1.65,1.33,2.83,2.91,2.91,2.01.1,4.02.15,6.03.16,7.8.02,15.61,0,23.41.03,1.5,0,3.02.1,4.5.36.68.12,1.45.62,1.47,1.5.07,2.75.11,5.5.11,8.26,0,.8-1.13,1.76-2.08,1.88-.99.13-1.99.31-2.99.31-13.84.02-27.69.02-41.53.02-1.77,0-3.54-.01-5.07-1.25Z"/>
          <path class="cls-3" d="m1350.73,438.21c-7.59.09-14.34-2.38-20.33-6.88-7.72-5.79-12.63-13.52-15.11-22.81-3.37-12.58-.6-23.99,7.24-34.07,8.61-11.06,20.38-15.1,34.06-13.61,7.97.87,14.98,4.12,20.45,10.21.84.93,1.6,1.94,2.33,2.95,1.29,1.79,1.09,3.14-.81,4.45-2.27,1.57-4.6,3.03-6.96,4.46-.31.19-1.06.02-1.36-.25-.74-.66-1.36-1.47-2-2.24-4.11-4.95-9.42-7.3-15.81-7.48-9.97-.27-17.41,4.24-21.53,13.4-4.07,9.03-3.76,18.06.61,26.91.77,1.56,1.81,3.03,2.9,4.4,9.63,12.09,26.4,9.79,33.77,1.07.81-.96,1.57-1.95,2.45-2.83.3-.3.97-.52,1.34-.39,3.11,1.07,5.85,2.84,8.47,4.81.66.5.91,1.97.55,2.77-1.38,3.08-3.67,5.37-6.31,7.35-7.09,5.3-15.14,7.68-23.93,7.76Z"/>
          <path class="cls-3" d="m1759.65,415.26c3.57,1.22,6.51,3.09,9.37,5.12.75.53.88,1.78.43,2.74-1.31,2.81-3.36,5-5.75,6.87-6.32,4.96-13.58,7.56-21.55,8.12-12.52.88-22.52-4.04-30.39-13.59-5.6-6.81-8.83-14.74-9.37-23.46-.93-15.16,7.75-32.16,24.17-38.13,8.59-3.12,17.24-3.26,25.88-.39,5.87,1.95,10.76,5.42,14.54,10.34,2.58,3.36,2.21,3.99-.65,6.08-1.82,1.33-3.76,2.51-5.66,3.73-.86.55-1.94.33-2.67-.52-.81-.96-1.53-2-2.39-2.91-3.62-3.82-8.08-5.92-13.34-6.21-3.52-.19-7.03-.28-10.42,1.06-4.61,1.82-8.15,4.88-10.86,8.98-2.27,3.43-3.52,7.26-4.15,11.25-1.23,7.76.28,15.07,4.67,21.6,3.83,5.7,9.14,9.34,16.14,9.91,7.12.58,13.44-1.34,18.48-6.65,1.19-1.25,2.29-2.58,3.49-3.94Z"/>
          <path class="cls-3" d="m1800.29,405.09c0-7.54,0-15.08,0-22.62,0-2.01-.03-4.02-.12-6.03-.1-2.05-1.21-3.17-3.37-3.21-5.28-.1-10.55-.07-15.83-.16-1.24-.02-2.49-.2-3.7-.46-.4-.09-.88-.6-1.01-1.02-.89-2.95-.87-5.94.02-8.88.12-.4.67-.79,1.1-.97.69-.28,1.45-.48,2.18-.52,2.01-.11,4.02-.15,6.03-.16,14.58-.01,29.15-.03,43.73.02,2.5,0,5,.28,7.49.48.9.08,1.77,1.13,1.88,2.07.06.5.16,1,.17,1.49.11,8.05.53,7.98-7.64,7.96-4.02,0-8.04,0-12.06.05-1,.01-2.05.07-2.96.41-.6.23-1.35.95-1.42,1.53-.29,2.23-.45,4.49-.45,6.74-.04,15.33-.01,30.67-.03,46,0,2.26-.05,4.52-.15,6.78-.07,1.6-1.31,2.96-2.82,3-2.76.07-5.52.07-8.27-.03-1.55-.05-2.6-1.36-2.66-3.09-.07-2.01-.09-4.02-.09-6.03-.01-7.79,0-15.59,0-23.38Z"/>
        </g>
        <g>
          <path class="cls-2" d="m739.35,394.45c-.63-1.7-1.29-3.59-2.03-5.45-2.96-7.49-5.96-14.96-8.88-22.46-.53-1.37-.76-2.85-1.1-4.19,2.03-1.48,4.07-1.12,6.05-.91,1.01.1,1.91.7,2.31,1.71,1.75,4.45,3.43,8.92,5.19,13.37,1.11,2.8,2.3,5.57,3.53,8.31.14.32.84.57,1.25.54.4-.03.99-.38,1.13-.74,2.08-5.13,4.1-10.28,6.14-15.43.84-2.1,1.63-4.23,2.59-6.27.29-.61,1.04-1.29,1.66-1.38,2.19-.32,4.46-.87,6.74.78-.51,1.62-.95,3.3-1.58,4.92-2.83,7.27-5.73,14.51-8.58,21.77-.73,1.86-1.37,3.76-2.03,5.55.36,1.15.59,2.13.97,3.05,3.37,8.13,6.77,16.26,10.18,24.38.29.69.61,1.39,1.08,1.96.26.31.86.53,1.27.48.41-.05.97-.41,1.14-.78,1.04-2.29,2.03-4.61,2.96-6.94,6.21-15.67,12.4-31.35,18.6-47.03.46-1.17.93-2.34,1.4-3.5,2.38-5.92,2.08-5.76,8.88-5.64.49,0,.98.19,1.47.25.56.07,1.26,1.2,1.07,1.76-.41,1.18-.8,2.38-1.28,3.54-9.31,22.29-18.64,44.57-27.97,66.85-.48,1.16-1.01,2.3-1.6,3.41-.49.92-1.28,1.58-2.38,1.62-1.5.05-3.01.04-4.52,0-1.1-.03-1.89-.67-2.34-1.63-.97-2.05-1.92-4.1-2.79-6.19-3.13-7.42-6.21-14.86-9.35-22.27-.58-1.38-1.32-2.69-2.02-4.02-.1-.18-.41-.41-.57-.37-.47.11-1.13.22-1.32.55-.86,1.52-1.65,3.09-2.34,4.69-3.16,7.41-6.26,14.83-9.42,22.24-.79,1.85-1.63,3.68-2.54,5.47-.47.93-1.3,1.53-2.41,1.54-1.75.02-3.5,0-4.82,0-1.92-.93-2.42-2.4-3-3.77-3.79-9.05-7.55-18.12-11.32-27.17-5.51-13.24-11.03-26.48-16.53-39.73-.67-1.62-1.27-3.28-1.88-4.93-.17-.47.69-1.65,1.24-1.66,2-.05,4.01-.1,6.01-.09,1.1,0,1.93.64,2.37,1.59.95,2.05,1.85,4.13,2.69,6.23,6.61,16.6,13.19,33.2,19.8,49.8.74,1.86,1.55,3.7,2.43,5.51.18.38.75.73,1.19.79.36.05.92-.24,1.16-.55.45-.6.78-1.3,1.07-1.99,3.45-8.37,6.9-16.75,10.32-25.14.28-.69.42-1.43.71-2.42Z"/>
          <path class="cls-2" d="m1100.16,399.99c0,10.32.01,20.63-.01,30.95,0,1.76-.07,3.52-.27,5.26-.08.72-.57,1.42-1.42,1.55-.99.15-1.98.23-2.98.33-2.44.26-4.41-.47-5.87-2.54-1.02-1.43-2.18-2.76-3.27-4.15-11.82-15.03-23.64-30.06-35.48-45.08-1.39-1.77-2.91-3.45-4.39-5.15-.4-.46-.9-.47-1.37-.1-.18.14-.44.32-.45.5-.15,1.74-.35,3.49-.35,5.24-.03,14.85,0,29.69-.03,44.54,0,1.75-.16,3.51-.38,5.25-.05.39-.58.9-.99,1.04-1.95.65-3.98.62-5.95.16-.59-.14-1.19-.86-1.5-1.46-.34-.64-.43-1.44-.47-2.18-.09-1.51-.09-3.02-.09-4.53,0-20.13,0-40.26,0-60.39,0-1.76.03-3.52.12-5.28.13-2.51,1.16-3.38,3.93-3.42.5,0,1.01.03,1.51.02,1.34-.02,2.48.48,3.34,1.47,1.31,1.52,2.56,3.1,3.8,4.68,12.1,15.45,24.18,30.92,36.28,46.36,1.39,1.78,2.87,3.5,4.38,5.18.26.29.98.44,1.32.29.38-.17.77-.75.8-1.17.16-2.25.29-4.51.3-6.77.03-13.09,0-26.17.02-39.26,0-2.26.01-4.53.1-6.79.03-.74.23-1.49.5-2.18.17-.43.55-.91.95-1.09,2.17-.93,4.39-.86,6.58-.05.41.15.91.66.97,1.05.21,1.48.35,2.99.36,4.49.03,11.07.01,22.14.02,33.22Z"/>
          <path class="cls-2" d="m921.08,410.18c-5.5-.55-11.27-.32-17.04-.17-2.44.06-3.02,1.59-3.06,3.5-.08,4.77-.06,9.54-.1,14.32-.02,2.51-.02,5.02-.1,7.53-.05,1.72-1.05,2.61-2.95,2.67-1.25.03-2.51-.02-3.76-.08-1.02-.05-1.95-.88-2.06-1.83-.14-1.24-.32-2.49-.32-3.74-.02-22.11-.01-44.21-.01-66.32,0-.25,0-.5.02-.75.13-4.13.71-4.76,4.9-4.78,8.79-.05,17.58-.12,26.37,0,11.39.16,19.67,6.11,23.47,16.69,3.63,10.11.23,23.1-9.89,28.99-1.08.63-2.16,1.26-3.23,1.91-.5.31-.74,1.48-.41,2.04,1.15,1.95,2.28,3.9,3.48,5.81,3.74,5.96,7.52,11.89,11.24,17.85.52.84.93,1.78,1.2,2.73.09.3-.37,1.05-.7,1.14-2.46.69-4.98.55-7.45.14-.65-.11-1.33-.74-1.76-1.3-1.06-1.4-2-2.89-2.95-4.37-3.64-5.72-7.24-11.47-10.91-17.17-1.08-1.67-1.97-3.53-3.99-4.81Zm-6.39-41.27v-.12c-3.75.1-7.5.17-11.25.31-1.25.05-2.36,1.17-2.36,2.47-.02,9.26,0,18.51.02,27.77,0,.79,1.14,1.93,1.92,2.04.99.14,1.98.33,2.97.33,5.51.04,11.01.04,16.52.02,1.25,0,2.5-.15,3.74-.27,3.44-.33,6.18-1.95,8.26-4.65,4.95-6.42,5.42-15.59.14-22.29-2.78-3.53-6.4-5.54-10.96-5.61-3-.05-6.01,0-9.01,0Z"/>
          <path class="cls-2" d="m840.83,438.4c-9.75.2-18.03-3.53-24.77-10.57-14.37-15.01-16.05-39.12-.72-56.07,4.12-4.55,9.05-8.05,14.92-9.87,12.5-3.88,23.93-1.73,33.65,7.16,9.44,8.63,13.82,19.57,13.29,32.36-.46,11.06-4.76,20.46-12.96,27.94-6.56,5.98-14.29,9.22-23.42,9.05Zm.63-8.49c6.95.18,12.63-2.66,17.44-7.49.71-.71,1.36-1.48,1.97-2.28,8.54-11.22,9.95-27.67.61-40.77-1.76-2.47-3.95-4.52-6.41-6.32-7.68-5.63-19.19-5.78-27.02-.82-3.46,2.19-6.24,5.03-8.46,8.45-4.58,7.05-5.96,14.8-5.11,23.05.63,6.16,2.85,11.71,6.71,16.51,5.17,6.43,11.81,9.99,20.27,9.67Z"/>
          <path class="cls-2" d="m1119.16,399.65c0-10.58-.01-21.15.01-31.73,0-1.75.18-3.5.32-5.25.07-.84,1.19-1.86,2.06-1.94,1.25-.1,2.5-.22,3.76-.22,5.54-.02,11.08-.01,16.62-.01,7.55,0,15.11,0,22.66.01,1.25,0,2.51.1,3.76.18.87.06,1.91,1.01,2.12,1.89.36,1.49.49,3.01-.08,4.44-.25.62-.87,1.41-1.44,1.52-1.46.29-2.99.32-4.5.33-9.06.03-18.13,0-27.19.02-2.01,0-4.02.1-6.03.21-1.2.06-2.31,1.22-2.32,2.52-.03,6.8-.03,13.59,0,20.39,0,1.25,1.17,2.42,2.37,2.49,2.01.11,4.02.2,6.03.21,7.3.03,14.6,0,21.9.03,1.5,0,3.01.16,4.49.38.4.06,1.01.59,1.04.95.14,1.48.16,2.98.1,4.48-.03.86-.82,1.32-1.52,1.4-1.74.2-3.51.29-5.26.3-7.3.03-14.6,0-21.9.03-1.76,0-3.51.15-5.26.29-.88.07-1.78,1.11-1.9,2.06-.03.25-.13.49-.13.74-.01,7.05-.02,14.1,0,21.15,0,.49.05,1.09.32,1.45.42.56.99,1.28,1.59,1.37,1.73.27,3.5.34,5.25.35,9.06.03,18.13,0,27.19.02,2.01,0,4.02.09,6.03.18,1.02.05,1.97.89,2,1.88.05,1.49.09,3.01-.13,4.47-.09.59-.8,1.27-1.4,1.56-.64.31-1.47.27-2.22.27-14.6.02-29.2.03-43.81,0-.99,0-2-.19-2.96-.45-.41-.12-.88-.61-1.01-1.03-.29-.95-.52-1.95-.53-2.94-.06-4.53-.04-9.06-.05-13.6,0-6.8,0-13.6,0-20.4Z"/>
          <path class="cls-2" d="m985.88,401.35c-.98.86-2.16,1.79-3.21,2.84-2.49,2.5-4.89,5.08-7.37,7.58-1.49,1.51-2.29,3.21-2.27,5.38.06,4.78.02,9.57-.02,14.35-.01,1.51-.03,3.03-.29,4.5-.11.61-.76,1.42-1.34,1.61-2.18.72-4.44.76-6.62-.07-.42-.16-.8-.63-1.01-1.06-.22-.43-.28-.97-.29-1.46-.05-2.26-.07-4.53-.08-6.8,0-19.38,0-38.77,0-58.15,0-1.51.02-3.02,0-4.53-.02-3.83.62-4.95,4.78-4.89.99.02,2.03.09,2.95.42.63.22,1.42.86,1.54,1.44.3,1.46.34,2.99.35,4.49.03,10.07,0,20.14.04,30.21,0,1.23.25,2.48.54,3.69.06.24,1.03.56,1.23.4,1.19-.91,2.35-1.88,3.37-2.97,9.11-9.74,18.19-19.52,27.28-29.28,1.37-1.47,2.91-2.83,4.08-4.44,2.7-3.71,6.24-4.83,10.57-3.87.41.09.89.52,1.03.91.14.38.05,1.04-.21,1.35-1.44,1.75-2.93,3.45-4.45,5.13-6.94,7.64-13.89,15.27-20.83,22.9-.68.74-1.32,1.52-1.95,2.3-.6.74-.67,2.05-.12,2.82,1.31,1.84,2.63,3.69,3.99,5.49,7.74,10.24,15.51,20.46,23.25,30.7.9,1.2,1.71,2.47,2.53,3.73.43.66,0,1.72-.69,1.8-.5.06-.99.21-1.48.2-6.62-.02-5.97.67-10.03-4.75-7.24-9.67-14.49-19.33-21.75-28.99-.88-1.18-1.6-2.57-3.55-2.97Z"/>
          <path class="cls-2" d="m1184.2,420.9c1.84,1.19,3.3,2.17,4.8,3.09,8.45,5.25,17.65,6.93,27.46,5.83,2.3-.26,4.43-.97,6.43-2.03,7.04-3.73,7.87-13.63,1.23-18.14-1.85-1.25-3.92-2.27-6.03-3-3.55-1.23-7.21-2.14-10.83-3.19-3.61-1.06-7.28-1.97-10.81-3.25-2.58-.93-5.08-2.18-7.43-3.6-3.64-2.2-5.8-5.64-6.45-9.77-1.63-10.42,2.6-19.19,12.04-23.63,2.76-1.3,5.66-2.21,8.62-2.62,10.29-1.42,20.03.15,28.84,5.98.62.41,1.16.95,1.72,1.45.64.58.75,1.4.4,2.05-.83,1.53-1.78,3-2.79,4.42-.22.31-.96.51-1.32.39-.93-.32-1.83-.78-2.66-1.31-6.87-4.38-14.41-5.6-22.39-4.85-2.55.24-4.95.93-7.14,2.2-3.5,2.03-5.52,5.06-5.7,9.17-.04,1-.03,2.01.06,3.01.22,2.67,1.47,4.84,3.68,6.27,1.67,1.08,3.49,2.02,5.37,2.65,3.32,1.12,6.74,1.97,10.12,2.91,3.87,1.07,7.79,1.99,11.6,3.23,2.37.77,4.68,1.85,6.85,3.08,4.6,2.61,7.41,6.51,8.49,11.82,1.53,7.48-1.05,18.07-11.17,22.41-2.52,1.08-5.18,2.13-7.86,2.49-8.8,1.17-17.57,1.01-25.99-2.28-2.8-1.09-5.63-2.24-8.19-3.77-5.43-3.25-7.25-4.07-.92-11.03Z"/>
          <path class="cls-2" d="m1271.51,403.49c0-9.56.02-19.13-.02-28.69,0-1.49-.24-3-.51-4.47-.07-.4-.63-.92-1.04-1.01-1.22-.24-2.48-.4-3.73-.41-5.28-.05-10.57-.01-15.85-.05-1.25,0-2.54,0-3.74-.29-.59-.14-1.23-.85-1.49-1.46-.62-1.42-.47-2.95-.17-4.45.18-.89,1.22-1.92,2.03-1.97,1.25-.08,2.51-.18,3.76-.19,16.86-.01,33.72,0,50.58,0,.75,0,1.51,0,2.26.03,3.31.1,4.25,1.18,4.08,4.79-.03.74-.22,1.5-.51,2.18-.17.4-.63.85-1.04.95-.96.24-1.97.39-2.96.4-4.78.04-9.56.01-14.34.04-1.76.01-3.52.12-5.27.21-.93.05-2,1-2.05,1.86-.14,2.25-.31,4.51-.31,6.76-.03,17.12,0,34.23-.03,51.35,0,2.26-.13,4.52-.24,6.78-.04.86-1.13,1.96-1.95,2.04-2,.19-4.01.51-5.95-.27-.42-.17-.96-.59-1.04-.98-.25-1.21-.43-2.47-.43-3.71-.03-9.82-.02-19.63-.02-29.45h-.01Z"/>
        </g>
      </g>
      <g>
        <path d="m717.69,492.89c-1.1.34-1.54,1.28-1.79,2.24-1.68,6.31-3.29,12.63-4.96,18.93-1.03,3.88-2.14,7.74-3.23,11.6-.31,1.1-1.19,1.59-2.21,1.75-2.6.39-4.06-.42-4.66-2.64-3.5-13.09-6.97-26.19-10.43-39.29-.32-1.2.68-2.3,2.14-2.43,1.83-.16,3.24.52,3.71,1.89.41,1.18.77,2.38,1.07,3.6,2.1,8.53,4.17,17.07,6.28,25.59.08.34.67.87.81.82.42-.18.84-.55,1.06-.95.35-.65.6-1.38.8-2.1,2.2-8.24,4.37-16.49,6.57-24.74.19-.72.48-1.42.77-2.12.53-1.29,1.57-1.91,2.92-2,.75-.05,1.53-.09,2.25.07.98.21,1.99.58,2.33,1.65.69,2.15,1.31,4.32,1.9,6.5,2.16,7.98,4.3,15.97,6.43,23.88,1.13.41,1.37-.4,1.53-.97,1.43-5.07,2.81-10.15,4.18-15.23,1.17-4.36,2.26-8.75,3.43-13.11.66-2.46,2.94-3.48,5.32-2.39.38.17.78.73.82,1.14.07.72-.06,1.49-.25,2.19-3.39,12.34-6.8,24.68-10.24,37.01-.27.95-.66,1.89-1.15,2.75-.21.37-.78.64-1.23.75-2.82.69-4.5-.16-5.21-2.78-2.23-8.24-4.39-16.49-6.6-24.73-.58-2.17-1.25-4.33-1.9-6.48-.05-.16-.31-.26-.47-.39Z"/>
        <path d="m1231.78,483.83c2.75,5.43,4.43,11.49,6.76,17.3,2.23,5.57,3.93,11.35,6.51,16.76.64-.23,1.35-.26,1.49-.56.85-1.81,1.63-3.65,2.31-5.52,3-8.26,5.95-16.54,8.94-24.8.34-.93.75-1.86,1.25-2.71.23-.4.71-.77,1.15-.91,1.96-.61,3.95-.65,5.88.13.39.16.77.71.87,1.14.22.97.35,1.98.35,2.97.02,11.81.02,23.63,0,35.44,0,.99-.08,2.04-.39,2.97-.21.63-.71,1.26-1.64,1.29-1.38.05-2.46-.21-2.62-.92-.27-1.2-.62-2.42-.64-3.64-.07-6.79-.04-13.57-.05-20.36,0-2.25,0-4.5,0-6.79-.7.1-1.42,0-1.6.26-.54.81-.95,1.73-1.29,2.65-2.85,7.78-5.67,15.57-8.52,23.35-.52,1.41-1.11,2.8-1.7,4.17-.46,1.07-1.46,1.3-2.47,1.39-2.36.2-3.54-.36-4.27-2.22-1.82-4.68-3.54-9.4-5.36-14.08-1.91-4.91-3.88-9.79-5.84-14.67-.22-.54-.66-.72-1.23-.45-.17.08-.34.33-.36.52-.1.99-.21,1.99-.21,2.99-.02,6.54,0,13.07-.01,19.61,0,2.01-.01,4.02-.18,6.02-.06.66-.49,1.41-.98,1.88-.6.57-3.18.44-3.61-.07-.31-.37-.64-.83-.72-1.29-.17-.99-.24-2-.24-3-.01-11.81-.01-23.63,0-35.44,0-.75.1-1.5.18-2.25.07-.73,1.25-1.81,2.11-1.89,2-.18,4.01-.42,6.13.71Z"/>
        <path d="m1419.52,505.52c0-6.04-.02-12.08.02-18.11,0-.99.18-2,.44-2.95.11-.4.62-.84,1.03-.96.95-.27,1.95-.5,2.93-.51,7.55-.04,15.09-.04,22.64,0,.98,0,1.97.26,2.95.43.8.14,1.4,1.2,1.41,2.4,0,1.22-.6,2.22-1.47,2.28-1.5.11-3,.23-4.51.24-5.03.03-10.06.01-15.09.03-.75,0-1.5.11-2.25.18-.93.08-1.88,1.01-1.89,1.98-.05,3.01-.08,6.02-.04,9.04.01,1.33,1.03,2.26,2.47,2.29,4.27.07,8.55.07,12.82.12,2.01.02,4.02.08,6.03.15.9.03,1.82,1.01,1.95,1.98.17,1.26-.75,2.9-1.74,2.99-1.5.13-3.01.23-4.51.25-4.28.04-8.55,0-12.83.06-.99.01-2,.2-2.95.48-.41.12-.91.63-.99,1.03-.23,1.22-.38,2.48-.37,3.72.07,10.22-1.22,9.28,9.2,9.35,4.78.03,9.55.07,14.33.17,1.52.03,2.43,1.44,2.15,3.29-.11.71-.36,1.48-1.23,1.7-.48.12-.97.29-1.46.29-8.8,0-17.6,0-26.4-.03-1.43,0-2.45-.95-2.48-2.28-.09-4.02-.12-8.04-.16-12.07-.02-2.52,0-5.03,0-7.55h.02Z"/>
        <path d="m752.1,505.29c0-6.54-.03-13.08.02-19.61.01-2.04,2.43-3.24,4.52-2.29.42.19.96.62,1.02,1.01.23,1.48.33,2.98.4,4.48.1,2.26.11,4.52.18,6.78.02.69.95,1.43,1.5,1.2.93-.38,1.87-.75,2.76-1.21,2.83-1.44,5.86-1.5,8.85-.94,4.62.86,7.42,4.36,7.71,8.15.14,1.75.2,3.51.21,5.27.02,5.03.02,10.06-.02,15.09,0,.99-.15,2.01-.42,2.96-.21.74-.89,1.15-1.7,1.19-.5.03-1,.06-1.5.03-.94-.06-2.1-1-2.15-1.75-.1-1.5-.22-3.01-.23-4.51-.03-4.28.01-8.55-.03-12.83-.01-1.5-.08-3.02-.33-4.5-.27-1.57-1.24-2.74-2.73-3.36-3.83-1.58-9.96-.3-11.34,5.51-.46,1.93-.63,3.96-.69,5.95-.11,3.77-.02,7.54-.07,11.32-.01.99-.07,2.05-.45,2.94-.23.54-1.06.9-1.69,1.17-.43.18-.99.08-1.49.06-.98-.03-2.09-.96-2.14-1.76-.08-1.25-.22-2.5-.22-3.76-.02-5.53-.01-11.07-.01-16.6h.07Z"/>
        <path d="m1079.76,524.58c-.81.43-1.49.74-2.11,1.14-3.82,2.49-8,2.77-12.34,2.01-3.98-.7-6.66-3.79-7.02-7.76-.45-4.97,1.71-9.01,7.59-10.49,2.43-.61,4.93-.92,7.41-1.33.99-.16,2-.21,3-.35,1.34-.19,2.37-.92,2.91-2.13.63-1.44-.14-3.87-1.4-4.77-2.18-1.56-4.64-1.9-7.19-1.43-2.04.37-3.86,1.23-4.72,3.32-.83,2.02-2.43,2.31-4.32,2.06-.98-.13-1.83-1.15-1.61-2.11.22-.97.42-1.99.88-2.85,1.68-3.13,4.53-4.72,7.9-5.17,2.47-.33,5.04-.35,7.52-.09,5.34.57,9.23,4.04,9.3,9.98.04,3.52.03,7.05.05,10.57,0,1.26.04,2.52.02,3.77-.02,1.89.56,3.42,2.34,4.38.37.2.58.76.79,1.19.53,1.05-.45,2.73-1.59,2.85-1.53.17-3.02.09-4.36-.77-1.01-.66-2.01-1.34-3.02-2.02Zm-4.2-12.24c-1.82.36-4.5.85-7.15,1.43-.71.15-1.4.5-2.03.88-1.66,1.02-2.19,2.61-2.07,4.46.11,1.69,1.5,3.54,2.98,3.9,2.48.61,4.93.55,7.28-.53,3.39-1.56,4.98-4.43,4.75-8.43-.03-.58-.86-1.46-1.39-1.5-.49-.04-.98-.09-2.37-.22Z"/>
        <path d="m1326.45,528.04c-7.6-.08-12.57-4.21-14.48-11.71-1.03-4.05-.76-7.96.44-11.87,1.76-5.76,6.79-9.69,12.82-9.9,1.98-.07,4.06,0,5.95.54,5,1.4,8.13,4.88,9.4,9.84.48,1.89.28,3.97.38,5.96.03.53-.88,1.57-1.37,1.6-1.75.09-3.5.22-5.26.24-4.27.04-8.53.01-12.8.05-.74,0-1.48.19-2.22.3-.49.07-1.35,1.08-1.34,1.6.02,3.81,2.18,7.01,5.62,8.02,3.59,1.05,6.97.67,9.76-2.09.71-.7,1.28-1.55,1.98-2.26,1.04-1.07,2.29-.77,3.5-.37,1.03.34,1.49,1.49,1.09,2.34-2.7,5.72-7.5,7.75-13.48,7.72Zm-.49-19.79s0-.08,0-.11c2.5,0,5,.02,7.49-.01.92-.01,1.67-1.23,1.44-2.18-.06-.24-.03-.51-.12-.74-1.36-3.72-4.17-5.65-7.98-5.77-3.47-.11-6.26,1.49-8.06,4.59-1.25,2.15-.35,4.15,1.97,4.22,1.75.05,3.5.01,5.25.01Z"/>
        <path d="m802.37,528.05c-7.62-.03-12.66-4.16-14.58-11.59-1.05-4.05-.8-7.95.37-11.87,1.74-5.79,6.72-9.77,12.74-10.01,1.98-.08,4.06-.02,5.96.49,5.01,1.36,8.18,4.8,9.49,9.75.5,1.89.35,3.96.43,5.96.04.93-.91,1.75-2.01,1.8-1.75.08-3.51.15-5.26.16-4.01.03-8.03,0-12.04.04-.74,0-1.48.17-2.23.26-.84.1-1.6,1.27-1.47,2.27.56,4.57,3.41,7.43,7.7,7.84,3.85.37,6.77-1.08,9.12-4.12,1.39-1.8,2.62-1.83,4.57-.73.67.38.91,1.25.61,1.9-2.63,5.76-7.41,7.83-13.4,7.85Zm-.11-19.55c2.58-.2,5.06-.35,7.53-.62.32-.03.69-.64.81-1.05.13-.45.13-1.01-.02-1.46-1.23-3.78-4.04-5.61-7.84-5.94-3.46-.31-6.8,1.81-8.38,5.18-.29.63-.31,1.45-.25,2.17.03.39.47,1.03.78,1.07,2.47.29,4.95.45,7.36.65Z"/>
        <path d="m861.7,528.03c-8.58.19-14.24-4.34-15.83-13.55-.6-3.5-.25-6.99,1.02-10.38,2.2-5.89,6.86-9.37,13.1-9.57,2.01-.06,4,0,5.95.66,4.98,1.68,7.84,5.25,9.16,10.18.52,1.95.77,3.96.21,5.95-.11.4-.59.9-.98.97-1.21.25-2.46.42-3.7.44-4.77.05-9.55.01-14.32.05-.99,0-1.98.2-2.98.3-.5.05-1.36,1.16-1.29,1.65.88,6.55,6.63,10.24,12.54,7.89,1.34-.53,2.46-1.67,3.61-2.61.77-.62,1.4-1.41,2.16-2.06.73-.63,2.63-.29,3.48.55.55.55.5,1.9-.03,2.79-2.87,4.77-7.19,6.8-12.09,6.73Zm-1.08-19.58c2.68-.14,5.15-.28,7.62-.41.55-.03,1.36-1.12,1.16-1.61-.44-1.15-.75-2.41-1.44-3.38-2.05-2.88-4.96-4.11-8.44-3.47-3.72.68-6.34,2.71-7.08,6.66-.12.66.41,1.71.98,1.74,2.46.17,4.93.32,7.2.47Z"/>
        <path d="m1500.41,513.09c-.26.68-.62,1.16-.58,1.61.35,4.85,3.47,8.1,8,8.46,2.9.23,5.5-.41,7.58-2.57.69-.72,1.29-1.54,2.02-2.23,1.05-.99,2.28-.83,3.51-.34.93.38,1.41,1.68.97,2.5-2.28,4.32-5.8,6.84-10.69,7.35-.75.08-1.5.12-2.26.15-7.4.24-12.64-3.64-14.65-10.59-1.43-4.93-1.36-9.96.86-14.75,2.33-5.03,6.38-7.64,11.81-8.12,3.04-.27,6.01.04,8.8,1.52,2.8,1.49,4.82,3.65,6.02,6.51.67,1.61,1.16,3.35,1.43,5.07.62,4.03.15,5.05-4.1,5.07-4.53.02-9.06-.02-13.59.03-1.74.02-3.49.21-5.13.32Zm7.11-4.91s0,.09,0,.14c1.5,0,2.99.02,4.49,0,1.24-.02,2.49-.09,3.73-.17.97-.06,1.55-1.2,1.27-2.21-.63-2.25-1.81-4.08-3.87-5.28-5.27-3.07-12.08.02-13.07,5.43-.17.95.48,2.08,1.48,2.09,1.99.03,3.98,0,5.98,0Z"/>
        <path d="m1289.51,494.47c7.18.05,11.8,2.49,14.39,8.15,1.16,2.55,1.51,5.29,1.37,8.09-.04.89-1,1.85-1.99,1.89-1.5.07-3.01.14-4.51.15-4.27.02-8.54.01-12.81.03-.75,0-1.5.09-2.25.15-.9.08-1.73,1.13-1.7,2.11.11,3.69,2.04,6.24,5.34,7.49,3.48,1.32,6.94,1.02,9.85-1.63.92-.84,1.66-1.87,2.56-2.74.86-.83,3.19-.61,4.14.43.27.3.42.99.27,1.36-1.77,4.26-5,6.83-9.48,7.71-1.71.33-3.5.35-5.25.32-8.08-.13-12.61-6.77-13.42-12.05-.42-2.75-.46-5.49-.18-8.26.76-7.49,6.78-13.41,13.67-13.19Zm1.26,13.74c0,.09,0,.17,0,.26,2.45-.17,4.91-.3,7.36-.55.31-.03.81-.69.79-1.03-.05-.96-.12-2.01-.54-2.83-1.63-3.16-4.41-4.66-7.88-4.64-3.96.01-6.78,2.29-8.23,6.29-.44,1.21.43,2.47,1.81,2.5,2.23.04,4.45.01,6.68.01Z"/>
        <path d="m1683.7,497.53c1.16-.61,2.06-1.04,2.92-1.53,3.01-1.69,6.25-1.8,9.53-1.32,3.85.57,6.86,3.49,7.65,7.36.3,1.47.52,2.98.54,4.48.05,5.78.02,11.57-.02,17.36,0,.73-.24,1.47-.42,2.2-.21.85-.95,1.15-1.68,1.29-2.55.47-3.92-.56-3.97-3.1-.08-4.27-.03-8.55-.09-12.83-.03-2.26-.06-4.53-.26-6.78-.26-2.82-2.13-4.63-4.95-4.72-1.48-.05-3.05.08-4.44.54-2.54.84-4.28,2.68-4.75,5.37-.38,2.22-.58,4.49-.65,6.74-.11,3.52-.02,7.04-.08,10.56-.02.99-.14,2.03-.46,2.96-.23.66-.82,1.25-1.7,1.24-.5,0-1,.07-1.5.03-1-.07-2.06-.94-2.15-1.75-.11-1-.26-2-.26-3-.02-7.8,0-15.6,0-23.39,0-.25.01-.5.02-.75.04-1.32.36-2.56,1.74-3.01,1.54-.51,2.97-.29,3.95,1.24.13.2.38.31,1.03.81Z"/>
        <path d="m1019.28,511.37c.14,3.36-.71,6.49-2.38,9.36-2.58,4.42-6.41,6.95-11.58,7.29-4.12.27-8.01-.3-11.29-3.11-2.56-2.19-4.25-4.89-5.05-8.17-.91-3.74-.86-7.46.08-11.18,1.59-6.32,7.03-10.77,13.59-11.07,2.26-.1,4.49-.04,6.67.78,5.76,2.16,8.73,6.48,9.73,12.34.21,1.23.16,2.5.22,3.75Zm-6.03-.48c.03-2.32-.34-4.49-1.44-6.54-1.68-3.12-5.25-5.23-8.61-4.85-3.79.42-6.62,2.38-7.87,6.01-1.33,3.87-1.29,7.86.04,11.76,1.15,3.36,4.42,5.74,7.94,5.86,3.88.13,6.65-1.62,8.45-5.05,1.2-2.28,1.55-4.71,1.47-7.19Z"/>
        <path d="m1669.18,510.76c-.09,3.61-.43,6.57-1.93,9.3-2.76,5.02-6.88,7.85-12.68,8-2.77.07-5.51-.12-8.03-1.49-4.51-2.45-7.16-6.25-7.85-11.27-.34-2.46-.35-5.03-.07-7.49.96-8.42,7.74-13.4,14.72-13.35,2.01.01,4,.06,5.92.79,5.39,2.05,8.53,5.96,9.56,11.58.27,1.47.28,2.99.36,3.92Zm-6.04-.13c-.1-.94-.14-2.45-.43-3.91-.76-3.78-3.67-6.41-7.72-7.13-3.6-.64-7.5,1.34-9.18,4.98-2.08,4.53-2.1,9.19.08,13.71,1.55,3.2,4.24,4.82,7.8,4.85,3.56.03,6.14-1.64,7.91-4.72,1.3-2.27,1.46-4.73,1.54-7.78Z"/>
        <path d="m1131.15,512c-.26-3.88.43-6.56,1.65-9.06,2.51-5.17,6.71-7.97,12.43-8.43,3.06-.24,6,.14,8.76,1.6,3.25,1.72,5.55,4.32,6.82,7.72,1.84,4.89,1.89,9.92-.1,14.73-2.4,5.8-6.72,9.23-13.23,9.51-8.95.39-15.48-5.22-16.32-14.11-.09-.99-.01-2.01-.01-1.96Zm5.92-.2s0,.29,0,.54c-.02,2.05.57,3.95,1.49,5.74,1.76,3.42,4.54,5.21,8.45,5.04,3.53-.15,6.79-2.5,7.95-5.87,1.25-3.62,1.48-7.3.38-11.04-1.12-3.83-4.02-6.29-8.09-6.71-3.65-.38-7.31,1.93-8.93,5.54-.94,2.1-1.36,4.27-1.24,6.76Z"/>
        <path d="m953.13,511.09c0-4.28.02-8.56,0-12.84-.02-2.83,2.77-3.64,4.86-2.5.41.23.62.8,1.02,1.08.37.26.91.54,1.28.44.71-.19,1.37-.61,2-1,2.95-1.79,6.16-2.05,9.48-1.68,4.53.52,7.81,3.79,8.38,8.36.16,1.25.24,2.51.25,3.76.02,5.54.03,11.08-.02,16.62,0,.98-.24,1.99-.52,2.93-.12.39-.6.81-1.02.95-2.35.81-4.37-.29-4.41-2.45-.1-4.53-.08-9.06-.13-13.59-.03-2.26-.05-4.53-.22-6.79-.18-2.39-1.95-4.18-4.43-4.37-1.47-.12-3.01,0-4.46.31-2.39.5-3.96,2.17-4.86,4.36-.87,2.11-1.15,4.37-1.14,6.66.01,4.03.02,8.06-.05,12.09-.02.98-.25,1.98-.54,2.92-.12.38-.64.78-1.05.9-2.52.69-4.31-.33-4.34-2.55-.07-4.53-.02-9.06-.02-13.59h-.06Z"/>
        <path d="m923.48,497.24c1.31-.62,2.63-1.33,4-1.9,2.9-1.19,5.91-1.15,8.89-.47,3.71.85,6.56,4.17,7.09,7.97.07.5.13,1,.13,1.5,0,6.79,0,13.57-.01,20.36,0,.25-.09.49-.11.74-.13,1.26-1.05,1.93-2.69,1.97-.25,0-.5.01-.75,0-.99-.06-2.09-.91-2.14-1.72-.1-1.75-.21-3.51-.23-5.26-.04-4.78.06-9.56-.08-14.33-.13-4.57-2.92-6.78-7.49-6.16-3.85.52-6.54,2.9-7.25,6.62-.28,1.47-.33,3-.34,4.5-.05,4.02,0,8.05-.05,12.07-.01.99-.04,2.05-.39,2.95-.22.55-1.04.95-1.66,1.24-.42.2-.98.12-1.48.1-1-.02-2.1-.87-2.19-1.65-.08-.75-.21-1.5-.22-2.25-.01-8.3,0-16.59,0-24.89,0-.5.07-1,.11-1.5.07-.81,1.18-1.62,2.11-1.8,2.02-.4,3.14,1.28,4.77,1.91Z"/>
        <path d="m1585.96,525.27c-3.59,2.45-7.67,3.19-12.1,2.62-4.04-.53-7.53-4.13-7.85-7.98-.06-.75-.18-1.5-.18-2.25-.02-6.54-.03-13.07,0-19.61.01-2.02,1.45-3.05,3.56-2.7,1.34.22,2.32,1.22,2.33,2.51.05,4.78.04,9.55.09,14.33.02,2.01.05,4.02.21,6.02.18,2.19,2.12,4.16,4.35,4.64,3.75.79,8.4-1.36,9.69-5.35.63-1.95.88-3.9.89-5.93,0-4.53.02-9.05.11-13.57.01-.68.35-1.51.83-1.98.99-.98,2.31-.93,3.48-.36.59.29,1.01.99,1.45,1.54.14.17.13.48.13.73-.01,9.05-.01,18.1-.06,27.15,0,1.66-1.15,2.26-3.1,2.41-1.86.15-2.32-1.64-3.83-2.22Z"/>
        <path d="m1197.16,515.42c0,3.01.04,6.03-.01,9.04-.04,2.21-.97,2.98-3.39,2.96-1.04,0-2.21-.76-2.29-1.51-.12-1.25-.28-2.5-.29-3.74-.04-4.02-.01-8.04-.03-12.06,0-1.51.07-3.03-.12-4.52-.58-4.61-2.94-5.81-6.5-5.77-4.86.05-8.01,3.07-8.36,7.91-.2,2.75-.12,5.52-.17,8.28-.05,3.01-.06,6.02-.16,9.03-.07,1.89-2.72,3.1-4.63,2.11-.4-.21-.77-.69-.9-1.12-.22-.71-.32-1.48-.32-2.22-.02-8.54,0-17.08,0-25.62,0-2.9,2.16-3.26,4.11-2.63.45.15.85.51,1.24.82.83.66,1.63,1.01,2.68.37,2.86-1.76,5.96-2.52,9.34-2.28,4.92.35,8.56,3.36,9.53,8.16.25,1.22.29,2.49.3,3.74.04,3.01.01,6.03.01,9.04h-.04Z"/>
        <path d="m1382.11,528.24c-1.71-.23-3.77-.26-5.67-.82-3.9-1.16-6.48-3.72-7.16-7.9-.16-.95.6-2.02,1.6-2.16,1.58-.23,2.97-.08,3.85,1.54.47.87,1.02,1.77,1.73,2.43.71.67,1.62,1.29,2.54,1.53,2.46.65,5,.72,7.42-.18.89-.33,1.74-1.03,2.38-1.76,1.48-1.7.76-4.84-1.27-5.82-.9-.43-1.83-.81-2.8-1.06-2.19-.55-4.42-.97-6.61-1.52-1.21-.31-2.41-.7-3.55-1.21-3.31-1.47-5.01-3.99-4.94-7.7.07-3.65,1.68-6.3,5-7.72,5.15-2.21,10.29-2.06,15.21.69,2.03,1.13,3.42,2.89,4.07,5.21.46,1.63-.5,2.91-2.35,2.92-1.02,0-2.02-.08-2.73-.93-.32-.38-.56-.83-.89-1.21-3.01-3.51-6.53-4.25-10.73-2.24-1.28.61-1.75,1.75-1.72,3.07.03,1.34.6,2.49,1.88,2.99,1.63.64,3.31,1.14,5,1.61,2.18.6,4.42.98,6.55,1.72,1.39.48,2.73,1.29,3.9,2.19,1.66,1.28,2.44,3.07,2.63,5.21.52,5.92-3.28,9.29-7.82,10.4-1.69.41-3.48.46-5.54.71Z"/>
        <path d="m1529.37,511.93c.16-3.82.4-7.06,2.03-10.02,2.5-4.54,6.34-7.04,11.47-7.36,1.98-.13,4.08-.12,5.97.39,4.08,1.11,7.12,3.56,8.5,7.77.39,1.19.35,2.26-.32,2.74-1.16.84-3.37.77-4.13-.2-.62-.78-1.12-1.66-1.72-2.46-2.2-2.93-5.14-3.78-8.65-3.03-3.58.77-5.71,3.05-6.54,6.49-.77,3.2-.71,6.48-.09,9.72.86,4.5,4.6,7.36,9.21,7.16,2.41-.1,4.35-1.12,5.74-3.08.72-1.02,1.27-2.16,1.96-3.2.67-1,2.75-1.24,4.12-.42.36.22.77.85.71,1.21-.89,5.53-4.47,9.36-9.61,10.1-1.97.29-4,.32-5.99.22-7.32-.37-11.43-6.19-12.21-11.33-.26-1.73-.36-3.49-.48-4.69Z"/>
        <path d="m1458.53,527.25c-.4-1.25.05-2.12.65-2.91,2.59-3.39,5.21-6.74,7.79-10.13.9-1.18,1.69-2.45,2.45-3.57-.85-2.73-2.77-4.42-4.23-6.43-1.76-2.43-3.56-4.84-5.26-7.3-.13-.19.23-1.04.55-1.18,2.3-1.05,4.87-.62,6.13,1.07,1.5,2.01,2.85,4.12,4.34,6.13.58.78,1.35,1.42,2.1,2.19,2.68-2.32,3.96-5.41,5.95-7.96,1.62-2.07,3.7-2.32,6.05-1.63.7.2,1.16,1.23.74,1.81-1.91,2.63-3.85,5.25-5.75,7.88-1.16,1.61-2.29,3.25-3.53,5,.73,1.19,1.31,2.29,2.04,3.27,2.7,3.61,5.45,7.19,8.18,10.78.62.81,1.04,1.67.75,2.96-.9.09-1.87.21-2.85.26-1.58.08-2.95-.32-3.91-1.73-1.69-2.49-3.39-4.97-5.14-7.41-.7-.99-1.54-1.87-2.26-2.73-1.52.59-2.17,1.67-2.89,2.7-1.72,2.46-3.48,4.91-5.17,7.39-.96,1.41-2.3,1.85-3.88,1.78-.99-.04-1.97-.17-2.87-.25Z"/>
        <path d="m1038.84,527.48c-1.69.11-2.94-.53-3.57-2.15-1.83-4.68-3.67-9.36-5.46-14.06-1.79-4.7-3.55-9.41-5.25-14.14-.11-.32.23-1.02.57-1.25,2-1.38,4.99-.63,5.73,1.48,2.23,6.41,4.37,12.85,6.59,19.27.24.69.7,1.3,1.12,1.91.11.16.46.21.7.21.19,0,.49-.12.55-.27.63-1.63,1.27-3.27,1.81-4.93,1.72-5.26,3.38-10.53,5.12-15.78.71-2.14,2.54-2.97,4.85-2.33.62.17,1.32,1.18,1.19,1.73-.17.73-.3,1.49-.55,2.19-3.01,8.27-6.05,16.53-9.08,24.79-.17.47-.4.92-.6,1.38-.71,1.64-2.06,2.06-3.69,1.96Z"/>
        <path d="m1351.17,494.04c.15-2.1.29-4.34.47-6.57.1-1.24,1.1-1.95,2.69-1.95,1.97-.01,2.95.75,3.06,2.45.09,1.5.08,3,.16,4.5.11,2,.72,2.7,2.65,2.88,1.23.11,2.54-.11,3.61.67.35.26.6.75.75,1.18.28.82-.17,1.48-.74,1.96-1.26,1.09-2.87.58-4.32.86-.95.18-1.88,1.1-1.88,2.01-.01,5.76-.04,11.52,0,17.28,0,1.49.72,2.34,2.09,2.69,1.2.31,2.43.52,3.63.84.83.23,1.4,1.37,1.31,2.46-.08.99-.95,2.02-1.84,2.03-2,.03-4.02.21-5.98-.05-3.24-.42-5.12-2.82-5.19-5.52-.12-4.51-.08-9.02-.17-13.52-.05-2.48.35-5-.52-7.46-1.14-.53-2.3-.99-3.38-1.6-.81-.46-.71-2.91.13-3.37.65-.36,1.42-.49,2.1-.81.44-.21.82-.56,1.39-.97Z"/>
        <path d="m1097.31,501.05c-1.23-.62-2.36-1.1-3.4-1.72-1.35-.8-1.2-2.86.23-3.66.43-.24.92-.39,1.4-.56,1.01-.37,1.72-1.06,1.82-2.14.14-1.5.11-3.01.21-4.51.17-2.59,1.32-3.42,4.04-2.78.62.15,1.47.78,1.59,1.32.31,1.45.28,2.98.37,4.48.19,3.38.21,3.4,3.98,3.88.25.03.5.02.75.05,1.46.22,2.51,1.34,2.28,2.42-.19.89-1.1,1.79-2.02,1.94-1.22.2-2.47.28-3.67.56-.38.09-.68.63-.96,1.01-.14.19-.23.47-.23.71-.02,5.77-.04,11.54,0,17.3,0,1.5.7,2.32,2.13,2.67.97.24,1.99.29,2.96.52,1.16.28,1.98,1.71,1.77,2.93-.17.98-1.09,1.91-2,1.91-2,0-4.02.08-6-.14-2.56-.29-4.6-2.48-4.78-5.06-.19-2.75-.2-5.51-.24-8.27-.07-4.25.12-8.51-.19-12.87Z"/>
        <path d="m1614.7,527.45c-2.15,0-2.9.05-3.65,0-3.44-.29-5.63-2.32-5.95-5.63-.19-1.99-.21-4-.24-6.01-.05-4.26-.06-8.53-.06-12.79,0-1.76-.81-2.79-2.54-3.15-.46-.1-.91-.37-1.3-.65-.98-.71-1.02-2.67-.04-3.24.63-.37,1.39-.53,2.06-.85.94-.44,1.68-1.08,1.74-2.22.08-1.5.1-3.01.21-4.51.18-2.51,1.46-3.4,4.12-2.68.62.17,1.48.83,1.56,1.37.32,1.97.34,3.98.5,5.98.11,1.35.85,2.01,2.51,2.25.99.14,2.04.08,2.96.4.63.22,1.31.89,1.08,1.75-.18.66-.47,1.61-.96,1.8-1.12.45-2.4.52-3.62.76-1.03.2-1.91,1.07-1.91,2,0,6.01,0,12.02.09,18.03.02,1.08.92,1.73,1.96,1.99.97.25,1.97.37,2.93.63,1.16.32,1.93,1.74,1.48,2.97-.23.63-.77,1.38-1.35,1.59-.91.32-1.97.23-1.58.2Z"/>
        <path d="m831.21,498.32c1.52-1.04,2.88-2.18,4.42-2.97,1.07-.54,2.37-.69,3.59-.84,1.65-.21,2.78.95,2.79,2.69,0,1.67-.53,2.57-1.75,2.9-.24.06-.49.11-.73.17-6.12,1.54-8.56,4.24-8.87,10.26-.19,3.74-.05,7.49-.09,11.24-.01,1.24-.11,2.49-.21,3.73-.11,1.26-1.05,1.92-2.68,1.92-.25,0-.5,0-.75-.01-.93-.08-2.05-.99-2.15-1.73-.06-.49-.19-.99-.19-1.48,0-8.74-.02-17.49.04-26.23,0-.68.35-1.47.78-2.01.88-1.12,3.65-.78,4.65.52.44.57.77,1.24,1.15,1.86Z"/>
        <path d="m906.58,505.39c0,5.76.03,11.52-.03,17.27-.01,1.22-.31,2.45-.62,3.64-.1.38-.63.78-1.05.92-2.35.8-4.2-.28-4.34-2.5-.08-1.25-.12-2.5-.12-3.75,0-10.51,0-21.03,0-31.54,0-1.25.03-2.5.12-3.75.17-2.21,2.29-3.06,4.54-2.29.41.14.91.62,1,1.03.27,1.21.48,2.46.49,3.69.05,5.76.02,11.52.02,17.27h0Z"/>
        <path d="m1630.82,511.25c-.1,4.73-.19,9.47-.32,14.2-.02.9-.98,1.77-1.98,1.9-.49.06-.99.07-1.49.06-1.08-.04-2-.77-2.1-1.69-.11-.99-.25-1.98-.26-2.97-.02-7.73-.01-15.47,0-23.2,0-.74.1-1.49.17-2.23.08-.96.93-1.8,1.93-1.93,2.59-.34,3.87.65,3.89,3.14.04,4.24.01,8.48.01,12.72.05,0,.09,0,.14,0Z"/>
        <path d="m1123.25,511.53c0,3.99.04,7.98-.03,11.97-.01.96-.22,1.97-.56,2.87-.44,1.13-1.59,1.01-2.56,1.04-1.24.03-2.31-.55-2.45-1.24-.05-.24-.14-.47-.19-.71-.05-.24-.13-.49-.13-.74,0-8.98-.01-17.96,0-26.94,0-1.12.66-2.01,1.57-2.27,1.25-.36,2.52-.38,3.48.59.46.47.79,1.29.8,1.95.07,4.49.04,8.98.04,13.47h.03Z"/>
      </g>
      <path d="m1117.42,485.96c.06-1.64.66-2.54,1.84-2.77,1.26-.25,2.49-.19,3.42.75.96.97.96,3.74-.03,4.77-.45.47-1.26.74-1.94.81-2.24.22-3.2-.65-3.29-2.82,0-.24,0-.49,0-.73Z"/>
      <path d="m1630.78,486.35c-.06.48-.1.97-.2,1.44-.22,1.12-1.17,1.7-2.84,1.76-1.57.05-2.59-.56-2.73-1.8-.1-.96-.03-1.93,0-2.9,0-.23.09-.52.24-.68.32-.34.67-.76,1.09-.9,2.52-.86,4.46.51,4.44,3.07Z"/>
    </g>
  </g>
</svg>